<svg width="903" height="602" viewBox="0 0 903 602" fill="none" xmlns="http://www.w3.org/2000/svg">
<path d="M673.457 461.712H138.464C131.209 461.712 125.332 455.831 125.332 448.58V163.062C125.332 155.807 131.213 149.93 138.464 149.93H673.457C680.712 149.93 686.589 155.811 686.589 163.062V448.58C686.593 455.831 680.712 461.712 673.457 461.712Z" fill="#192776"/>
<path d="M630.155 348.342H460.414C456.544 348.342 453.406 345.205 453.406 341.335V184.097C453.406 180.226 456.544 177.089 460.414 177.089H630.155C634.026 177.089 637.163 180.226 637.163 184.097V341.335C637.163 345.205 634.026 348.342 630.155 348.342Z" fill="#4E63D9"/>
<path d="M617.266 199.517H475.448C474.484 199.517 473.704 198.738 473.704 197.773V197.271C473.704 196.306 474.484 195.527 475.448 195.527H617.266C618.23 195.527 619.01 196.306 619.01 197.271V197.773C619.01 198.738 618.23 199.517 617.266 199.517Z" fill="#192776"/>
<path d="M617.266 212.356H475.448C474.484 212.356 473.704 211.576 473.704 210.612V210.11C473.704 209.145 474.484 208.366 475.448 208.366H617.266C618.23 208.366 619.01 209.145 619.01 210.11V210.612C619.01 211.576 618.23 212.356 617.266 212.356Z" fill="#192776"/>
<path d="M617.266 225.199H475.448C474.484 225.199 473.704 224.419 473.704 223.454V222.953C473.704 221.988 474.484 221.208 475.448 221.208H617.266C618.23 221.208 619.01 221.988 619.01 222.953V223.454C619.01 224.415 618.23 225.199 617.266 225.199Z" fill="#192776"/>
<path d="M617.266 238.038H475.448C474.484 238.038 473.704 237.258 473.704 236.293V235.792C473.704 234.827 474.484 234.047 475.448 234.047H617.266C618.23 234.047 619.01 234.827 619.01 235.792V236.293C619.01 237.258 618.23 238.038 617.266 238.038Z" fill="#192776"/>
<path d="M617.266 250.876H475.448C474.484 250.876 473.704 250.097 473.704 249.132V248.63C473.704 247.666 474.484 246.886 475.448 246.886H617.266C618.23 246.886 619.01 247.666 619.01 248.63V249.132C619.01 250.097 618.23 250.876 617.266 250.876Z" fill="#192776"/>
<path d="M617.266 263.719H475.448C474.484 263.719 473.704 262.939 473.704 261.974V261.473C473.704 260.508 474.484 259.729 475.448 259.729H617.266C618.23 259.729 619.01 260.508 619.01 261.473V261.974C619.01 262.935 618.23 263.719 617.266 263.719Z" fill="#192776"/>
<path d="M617.266 276.558H475.448C474.484 276.558 473.704 275.778 473.704 274.813V274.312C473.704 273.347 474.484 272.567 475.448 272.567H617.266C618.23 272.567 619.01 273.347 619.01 274.312V274.813C619.01 275.778 618.23 276.558 617.266 276.558Z" fill="#192776"/>
<path d="M617.266 367.167H475.448C474.484 367.167 473.704 366.387 473.704 365.423V364.921C473.704 363.956 474.484 363.177 475.448 363.177H617.266C618.23 363.177 619.01 363.956 619.01 364.921V365.423C619.01 366.387 618.23 367.167 617.266 367.167Z" fill="#4E63D9"/>
<path d="M617.266 380.009H475.448C474.484 380.009 473.704 379.23 473.704 378.265V377.763C473.704 376.799 474.484 376.019 475.448 376.019H617.266C618.23 376.019 619.01 376.799 619.01 377.763V378.265C619.01 379.226 618.23 380.009 617.266 380.009Z" fill="#4E63D9"/>
<path d="M617.266 392.849H475.448C474.484 392.849 473.704 392.069 473.704 391.104V390.603C473.704 389.638 474.484 388.858 475.448 388.858H617.266C618.23 388.858 619.01 389.638 619.01 390.603V391.104C619.01 392.069 618.23 392.849 617.266 392.849Z" fill="#4E63D9"/>
<path d="M617.266 405.687H475.448C474.484 405.687 473.704 404.907 473.704 403.943V403.441C473.704 402.476 474.484 401.697 475.448 401.697H617.266C618.23 401.697 619.01 402.476 619.01 403.441V403.943C619.01 404.907 618.23 405.687 617.266 405.687Z" fill="#4E63D9"/>
<path d="M617.266 418.526H475.448C474.484 418.526 473.704 417.746 473.704 416.782V416.28C473.704 415.315 474.484 414.536 475.448 414.536H617.266C618.23 414.536 619.01 415.315 619.01 416.28V416.782C619.01 417.746 618.23 418.526 617.266 418.526Z" fill="#4E63D9"/>
<path d="M617.266 431.369H475.448C474.484 431.369 473.704 430.589 473.704 429.624V429.123C473.704 428.158 474.484 427.378 475.448 427.378H617.266C618.23 427.378 619.01 428.158 619.01 429.123V429.624C619.01 430.585 618.23 431.369 617.266 431.369Z" fill="#4E63D9"/>
<path d="M617.266 444.207H475.448C474.484 444.207 473.704 443.428 473.704 442.463V441.962C473.704 440.997 474.484 440.217 475.448 440.217H617.266C618.23 440.217 619.01 440.997 619.01 441.962V442.463C619.01 443.428 618.23 444.207 617.266 444.207Z" fill="#4E63D9"/>
<path d="M421.489 348.053H176.807C172.191 348.053 168.448 344.31 168.448 339.695V185.154C168.448 180.539 172.191 176.796 176.807 176.796H421.489C426.104 176.796 429.847 180.539 429.847 185.154V339.691C429.847 344.31 426.104 348.053 421.489 348.053Z" fill="#4E63D9"/>
<path d="M299.146 317.3C268.888 317.3 244.271 292.684 244.271 262.426C244.271 232.168 268.888 207.551 299.146 207.551C329.404 207.551 354.021 232.168 354.021 262.426C354.021 292.684 329.404 317.3 299.146 317.3ZM299.146 212.136C271.416 212.136 248.856 234.695 248.856 262.426C248.856 290.156 271.416 312.716 299.146 312.716C326.877 312.716 349.436 290.156 349.436 262.426C349.432 234.695 326.873 212.136 299.146 212.136Z" fill="#192776"/>
<path d="M338.077 262.716L279.583 228.946V296.486L338.077 262.716Z" fill="#192776"/>
<path d="M168.448 325.381V339.694C168.448 344.31 172.191 348.053 176.807 348.053H421.489C426.104 348.053 429.847 344.31 429.847 339.694V325.381H168.448Z" fill="#192776"/>
<path d="M429.847 333.258H168.448V337.248H429.847V333.258Z" fill="#4E63D9"/>
<path d="M356.546 365.172H170.443C169.34 365.172 168.448 364.28 168.448 363.177C168.448 362.073 169.34 361.182 170.443 361.182H356.55C357.654 361.182 358.545 362.073 358.545 363.177C358.541 364.28 357.65 365.172 356.546 365.172Z" fill="#4E63D9"/>
<path d="M356.546 378.015H170.443C169.34 378.015 168.448 377.123 168.448 376.02C168.448 374.916 169.34 374.024 170.443 374.024H356.55C357.654 374.024 358.545 374.916 358.545 376.02C358.541 377.119 357.65 378.015 356.546 378.015Z" fill="#4E63D9"/>
<path d="M356.546 390.853H170.443C169.34 390.853 168.448 389.962 168.448 388.858C168.448 387.755 169.34 386.863 170.443 386.863H356.55C357.654 386.863 358.545 387.755 358.545 388.858C358.541 389.958 357.65 390.853 356.546 390.853Z" fill="#4E63D9"/>
<path d="M356.546 403.692H170.443C169.34 403.692 168.448 402.8 168.448 401.697C168.448 400.593 169.34 399.702 170.443 399.702H356.55C357.654 399.702 358.545 400.593 358.545 401.697C358.541 402.8 357.65 403.692 356.546 403.692Z" fill="#4E63D9"/>
<path d="M356.546 416.531H170.443C169.34 416.531 168.448 415.64 168.448 414.536C168.448 413.432 169.34 412.541 170.443 412.541H356.55C357.654 412.541 358.545 413.432 358.545 414.536C358.541 415.64 357.65 416.531 356.546 416.531Z" fill="#4E63D9"/>
<path d="M356.546 429.374H170.443C169.34 429.374 168.448 428.482 168.448 427.378C168.448 426.275 169.34 425.383 170.443 425.383H356.55C357.654 425.383 358.545 426.275 358.545 427.378C358.541 428.478 357.65 429.374 356.546 429.374Z" fill="#4E63D9"/>
<path d="M356.546 442.212H170.443C169.34 442.212 168.448 441.321 168.448 440.217C168.448 439.114 169.34 438.222 170.443 438.222H356.55C357.654 438.222 358.545 439.114 358.545 440.217C358.541 441.321 357.65 442.212 356.546 442.212Z" fill="#4E63D9"/>
<path d="M299.923 341.632C303.51 341.632 306.418 338.724 306.418 335.137C306.418 331.55 303.51 328.643 299.923 328.643C296.336 328.643 293.429 331.55 293.429 335.137C293.429 338.724 296.336 341.632 299.923 341.632Z" fill="#4E63D9"/>
<path d="M592.878 202.068C581.212 202.068 571.723 211.43 571.723 222.938V461.488H673.457C680.712 461.488 686.589 455.688 686.589 448.529V202.068H592.878Z" fill="#192776"/>
<path d="M598.288 515.282C586.622 515.282 577.133 505.792 577.133 494.127V228.166C577.133 216.5 586.622 207.011 598.288 207.011H731.164C742.829 207.011 752.319 216.5 752.319 228.166V494.13C752.319 505.796 742.829 515.285 731.164 515.285H598.288V515.282Z" fill="#192776"/>
<path d="M731.16 246.585H598.284C591.666 246.585 586.302 251.949 586.302 258.567V352.711V383.115V494.127C586.302 500.745 591.666 506.109 598.284 506.109H731.16C737.778 506.109 743.142 500.745 743.142 494.127V383.115V352.711V258.567C743.142 251.949 737.778 246.585 731.16 246.585Z" fill="#192776"/>
<path d="M729.22 349.438H600.23C597.795 349.438 595.823 347.466 595.823 345.031V263.565C595.823 261.13 597.795 259.158 600.23 259.158H729.22C731.655 259.158 733.627 261.13 733.627 263.565V345.031C733.627 347.466 731.651 349.438 729.22 349.438Z" fill="#4E63D9"/>
<path d="M729.219 499.41H600.229C597.269 499.41 594.857 497.002 594.857 494.038V412.568C594.857 409.608 597.265 407.196 600.229 407.196H729.219C732.179 407.196 734.591 409.604 734.591 412.568V494.038C734.591 496.998 732.179 499.41 729.219 499.41ZM600.229 409.129C598.331 409.129 596.787 410.673 596.787 412.571V494.042C596.787 495.941 598.331 497.484 600.229 497.484H729.219C731.118 497.484 732.661 495.941 732.661 494.042V412.571C732.661 410.673 731.118 409.129 729.219 409.129H600.229Z" fill="#4E63D9"/>
<path d="M664.723 333.226C648.77 333.226 635.792 320.248 635.792 304.295C635.792 288.342 648.77 275.365 664.723 275.365C680.676 275.365 693.653 288.342 693.653 304.295C693.653 320.248 680.672 333.226 664.723 333.226ZM664.723 277.788C650.105 277.788 638.212 289.682 638.212 304.299C638.212 318.917 650.105 330.81 664.723 330.81C679.341 330.81 691.234 318.917 691.234 304.299C691.234 289.682 679.341 277.788 664.723 277.788Z" fill="#192776"/>
<path d="M685.246 304.454L654.409 286.648V322.255L685.246 304.454Z" fill="#192776"/>
<path d="M595.823 337.487V345.031C595.823 347.466 597.795 349.438 600.23 349.438H729.22C731.655 349.438 733.627 347.466 733.627 345.031V337.487H595.823Z" fill="#192776"/>
<path d="M733.627 341.644H595.823V343.747H733.627V341.644Z" fill="#4E63D9"/>
<path d="M732.572 358.464H596.871C596.288 358.464 595.817 357.994 595.817 357.411C595.817 356.828 596.288 356.357 596.871 356.357H732.572C733.154 356.357 733.625 356.828 733.625 357.411C733.625 357.994 733.154 358.464 732.572 358.464Z" fill="#4E63D9"/>
<path d="M732.572 365.233H596.871C596.288 365.233 595.817 364.762 595.817 364.179C595.817 363.597 596.288 363.126 596.871 363.126H732.572C733.154 363.126 733.625 363.597 733.625 364.179C733.625 364.762 733.154 365.233 732.572 365.233Z" fill="#4E63D9"/>
<path d="M732.572 372.002H596.871C596.288 372.002 595.817 371.531 595.817 370.949C595.817 370.366 596.288 369.895 596.871 369.895H732.572C733.154 369.895 733.625 370.366 733.625 370.949C733.625 371.531 733.154 372.002 732.572 372.002Z" fill="#4E63D9"/>
<path d="M732.572 378.771H596.871C596.288 378.771 595.817 378.3 595.817 377.717C595.817 377.134 596.288 376.664 596.871 376.664H732.572C733.154 376.664 733.625 377.134 733.625 377.717C733.625 378.3 733.154 378.771 732.572 378.771Z" fill="#4E63D9"/>
<path d="M732.572 385.539H596.871C596.288 385.539 595.817 385.068 595.817 384.486C595.817 383.903 596.288 383.432 596.871 383.432H732.572C733.154 383.432 733.625 383.903 733.625 384.486C733.625 385.068 733.154 385.539 732.572 385.539Z" fill="#4E63D9"/>
<path d="M732.572 392.308H596.871C596.288 392.308 595.817 391.837 595.817 391.254C595.817 390.671 596.288 390.201 596.871 390.201H732.572C733.154 390.201 733.625 390.671 733.625 391.254C733.625 391.837 733.154 392.308 732.572 392.308Z" fill="#4E63D9"/>
<path d="M732.572 399.08H596.871C596.288 399.08 595.817 398.609 595.817 398.027C595.817 397.444 596.288 396.973 596.871 396.973H732.572C733.154 396.973 733.625 397.444 733.625 398.027C733.625 398.609 733.154 399.08 732.572 399.08Z" fill="#4E63D9"/>
<path d="M665.132 346.054C667.022 346.054 668.555 344.522 668.555 342.631C668.555 340.741 667.022 339.208 665.132 339.208C663.241 339.208 661.709 340.741 661.709 342.631C661.709 344.522 663.241 346.054 665.132 346.054Z" fill="#4E63D9"/>
<path d="M665.133 240.315C672.162 240.315 677.86 234.617 677.86 227.588C677.86 220.559 672.162 214.861 665.133 214.861C658.104 214.861 652.406 220.559 652.406 227.588C652.406 234.617 658.104 240.315 665.133 240.315Z" fill="#192776"/>
<path d="M603.304 458.859L593.444 439.653L581.632 446.646L586.452 466.365L603.304 458.859Z" fill="#FEE4E2"/>
<path d="M614.297 466.311C613.78 465.559 612.811 464.297 611.631 462.8C609.937 465.864 606.599 470.24 600.069 475.01C587.732 484.02 568.916 500.24 560.353 502.316C556.741 503.192 553.854 502.049 551.716 500.44C549.76 504.504 550.79 508.386 553.325 510.829C556.829 514.201 583.074 501.482 587.69 496.435C592.305 491.387 612.9 475.75 614.56 473.721C616.223 471.691 616.551 469.592 614.297 466.311Z" fill="#4E63D9"/>
<path d="M611.542 462.684C607.575 457.663 601.293 450.115 601.293 450.115C599.379 447.804 602.555 456.347 598.271 459.292C593.988 462.236 588.809 462.444 588.319 461.927C587.833 461.41 588.192 460.503 587.659 457.91C587.127 455.321 574.539 454.314 574.215 454.8C573.89 455.286 561.503 490.221 555.333 495.778C553.627 497.314 552.462 498.889 551.717 500.44C553.855 502.049 556.741 503.191 560.353 502.315C568.916 500.239 587.729 484.02 600.07 475.009C606.46 470.344 609.787 466.056 611.515 463.004C611.527 462.896 611.531 462.792 611.542 462.684Z" fill="#BCC3F0"/>
<path d="M574.652 481.307C576.021 481.307 577.13 480.198 577.13 478.83C577.13 477.462 576.021 476.353 574.652 476.353C573.284 476.353 572.175 477.462 572.175 478.83C572.175 480.198 573.284 481.307 574.652 481.307Z" fill="#111827"/>
<path d="M578.489 473.301C579.857 473.301 580.967 472.191 580.967 470.823C580.967 469.455 579.857 468.346 578.489 468.346C577.121 468.346 576.012 469.455 576.012 470.823C576.012 472.191 577.121 473.301 578.489 473.301Z" fill="#111827"/>
<path d="M581.484 465.223C582.853 465.223 583.962 464.114 583.962 462.746C583.962 461.377 582.853 460.268 581.484 460.268C580.116 460.268 579.007 461.377 579.007 462.746C579.007 464.114 580.116 465.223 581.484 465.223Z" fill="#111827"/>
<path d="M601.292 450.115C599.378 447.804 602.554 456.347 598.271 459.292C593.987 462.236 588.808 462.444 588.318 461.927C588.318 461.927 589.758 473.292 600.034 464.914C603.727 461.904 605.815 459.222 606.98 457.019C603.997 453.364 601.292 450.115 601.292 450.115Z" fill="#4E63D9"/>
<path d="M539.799 435.165L520.77 424.962L515.024 437.43L530.198 450.917L539.799 435.165Z" fill="#FEE4E2"/>
<path d="M553.081 435.045C552.229 434.721 550.712 434.231 548.895 433.671C549.242 437.156 548.983 442.655 546.321 450.288C541.288 464.713 535.025 488.754 529.164 495.326C526.69 498.097 523.665 498.803 520.99 498.691C521.693 503.144 524.745 505.757 528.218 506.324C533.019 507.111 547.386 481.723 548.312 474.951C549.242 468.178 557.299 443.604 557.512 440.992C557.72 438.379 556.802 436.461 553.081 435.045Z" fill="#4E63D9"/>
<path d="M548.75 433.63C542.634 431.754 533.172 429.115 533.172 429.115C530.285 428.3 537.748 433.525 535.9 438.384C534.048 443.242 529.907 446.357 529.209 446.21C528.514 446.059 528.294 445.11 526.384 443.281C524.474 441.452 513.545 447.777 513.553 448.359C513.564 448.942 523.223 484.726 521.305 492.807C520.777 495.038 520.711 496.998 520.977 498.7C523.652 498.812 526.677 498.105 529.151 495.335C535.016 488.763 541.279 464.721 546.308 450.297C548.912 442.826 549.214 437.408 548.901 433.915C548.858 433.815 548.804 433.722 548.75 433.63Z" fill="#BCC3F0"/>
<path d="M527.578 470.355C528.946 470.355 530.055 469.246 530.055 467.877C530.055 466.509 528.946 465.4 527.578 465.4C526.21 465.4 525.101 466.509 525.101 467.877C525.101 469.246 526.21 470.355 527.578 470.355Z" fill="#111827"/>
<path d="M526.181 461.588C527.549 461.588 528.658 460.479 528.658 459.11C528.658 457.742 527.549 456.633 526.181 456.633C524.812 456.633 523.703 457.742 523.703 459.11C523.703 460.479 524.812 461.588 526.181 461.588Z" fill="#111827"/>
<path d="M524.06 453.24C525.428 453.24 526.537 452.131 526.537 450.763C526.537 449.394 525.428 448.285 524.06 448.285C522.691 448.285 521.582 449.394 521.582 450.763C521.582 452.131 522.691 453.24 524.06 453.24Z" fill="#111827"/>
<path d="M533.178 429.114C530.292 428.3 537.755 433.525 535.906 438.383C534.054 443.242 529.913 446.356 529.215 446.209C529.215 446.209 536.859 454.742 540.549 442.011C541.876 437.434 542.069 434.042 541.776 431.565C537.249 430.249 533.178 429.114 533.178 429.114Z" fill="#4E63D9"/>
<path d="M500.547 141.544C501.006 141.085 509.565 133.429 509.565 133.429C509.565 133.429 517.206 126.413 511.248 111.738C505.286 97.0619 527.452 98.2852 527.452 98.2852C527.452 98.2852 532.781 118.583 533.784 130.751C534.788 142.918 535.552 142.918 534.788 142.918C534.023 142.918 518.584 149.949 518.584 149.949L500.547 141.544Z" fill="#FEE4E2"/>
<path d="M474.866 237.076L466.535 242.579C466.535 242.579 465.084 257.405 486.941 250.833C508.798 244.262 501.647 232.337 501.647 232.337L474.866 237.076Z" fill="#1F2937"/>
<path d="M490.61 236.162C490.61 236.162 451.171 311.651 453.618 339.941C456.065 368.231 514.76 440.228 517.511 440.228C520.263 440.228 527.599 437.936 528.363 431.364C529.127 424.792 526.68 413.173 526.07 412.714C525.461 412.254 523.165 409.352 522.25 408.434C521.331 407.516 522.096 405.223 522.096 404C522.096 402.777 518.426 402.472 517.052 398.038C515.678 393.604 515.369 375.262 515.369 370.828C515.369 366.394 535.548 236.162 535.548 236.162H490.61Z" fill="#4E63D9"/>
<path d="M515.373 370.829C515.373 366.395 535.552 236.162 535.552 236.162H490.61C490.61 236.162 487.365 242.371 482.8 251.891C482.808 251.891 497.032 251.586 501.006 253.427C504.981 255.268 495.11 301.738 502.376 338.193C507.134 362.065 512.514 376.401 515.659 383.451C515.439 378.095 515.373 372.916 515.373 370.829Z" fill="#2B43CA"/>
<path d="M512.622 235.243C512.622 235.243 492.108 322.371 507.181 360.432C522.254 398.493 570.403 447.56 574.682 450.161C578.962 452.758 594.402 444.199 595.316 439.765C596.235 435.331 590.118 416.148 589.203 411.332C588.285 406.516 581.868 406.516 579.803 401.245C577.738 395.969 571.472 376.482 568.874 373.576C566.277 370.67 560.774 369.755 558.787 368.073C556.8 366.39 556.954 363.334 556.8 361.196C556.645 359.055 552.674 359.668 551.142 358.14C549.614 356.612 547.017 351.568 545.18 350.495C543.343 349.423 541.206 349.272 543.957 344.383C546.708 339.49 569.484 285.993 560.62 250.224C551.756 214.455 512.622 235.243 512.622 235.243Z" fill="#7989E2"/>
<path d="M536.771 261.23C543.803 267.582 554.488 267.597 562.627 266.347C562.495 260.74 561.878 255.302 560.616 250.224C558.582 242.016 554.951 236.791 550.567 233.603L521.671 231.604C516.307 233.283 512.618 235.244 512.618 235.244C512.618 235.244 510.928 242.421 508.875 253.547C514.667 252.887 527.298 252.667 536.771 261.23Z" fill="#2B43CA"/>
<path d="M582.897 207.27L578.351 206.182L561.345 181.936C561.345 181.936 575.885 158.296 575.789 158.909C575.692 159.523 586.799 174.368 586.799 174.368L582.897 207.27Z" fill="#FEE4E2"/>
<path d="M465.797 161.831C452.125 178.301 442.03 196.083 450.404 206.402C458.477 216.35 469.761 206.664 480.523 190.985C477.131 182.322 469.984 169.244 465.797 161.831Z" fill="#FEE4E2"/>
<path d="M569.851 244.15C569.847 241.923 569.693 239.534 569.527 237.061C569.442 236.613 569.342 236.181 569.218 235.78C567.651 230.582 566.81 229.729 566.965 229.239C567.119 228.749 568.952 226.993 568.493 226.074C568.034 225.156 565.436 224.546 564.977 223.095C564.611 221.93 567.709 218.287 568.304 215.316C568.269 214.644 568.238 213.973 568.203 213.301C566.965 210.253 567.536 205.896 567.076 201.771C566.621 197.665 566.976 190.055 566.98 189.981C566.86 188.052 566.737 186.142 566.602 184.27C575.176 174.584 578.349 159.43 578.349 159.43C563.217 137.723 547.118 132.448 547.118 132.448C546.311 132.085 545.817 131.912 545.817 131.912C541.92 130.904 537.563 130.673 533.781 130.75C532.384 136.419 527.279 140.625 521.182 140.625C516.092 140.625 511.696 137.692 509.566 133.428C508.779 133.598 507.98 133.791 507.177 133.995V133.992C494.246 136.226 460.495 157.593 461.414 169.668C462.332 181.742 475.781 199.015 475.781 199.015C477.321 194.963 482.862 189.661 487.724 185.578C487.562 194.716 486.636 204.14 483.503 213.004C480.288 222.096 476.707 228.17 473.658 232.376C468.7 239.214 465.96 240.588 466.539 242.579C468.233 248.437 493.065 239.176 523.632 245.636C546.852 250.544 558.76 261.434 566.127 255.418C567.733 254.106 568.682 252.335 569.226 250.251C569.261 250 569.689 247.345 569.851 244.15Z" fill="#374151"/>
<path d="M596.26 107.461L596.11 107.453C596.091 105.346 596.114 95.0931 598.321 90.8328C599.429 88.6988 600.239 86.9738 600.795 85.7158C601.362 84.4346 600.405 82.9836 599.004 83.0222C597.445 83.0685 595.67 83.5471 594.921 85.326C593.459 88.8068 592.853 90.937 592.853 90.937C592.853 90.937 584.043 87.5604 580.875 91.7319C577.706 95.9035 576.607 104.27 581.909 104.64C587.211 105.015 586.597 107.033 586.597 107.033C586.597 107.033 554.479 202.708 584.622 210.017C614.764 217.326 600.525 127.011 596.26 107.461Z" fill="#FEE4E2"/>
<path d="M475.992 227.151L475.803 227.228C474.915 227.587 473.904 227.159 473.545 226.271L413.708 78.1676C413.349 77.2801 413.777 76.269 414.665 75.9101L414.854 75.833C415.742 75.4741 416.753 75.9024 417.112 76.79L476.949 224.894C477.312 225.781 476.879 226.792 475.992 227.151Z" fill="#1F2937"/>
<path d="M475.302 217.245L469.498 221.147C467.368 222.579 464.485 222.011 463.054 219.885L456.466 210.083C455.035 207.957 455.602 205.07 457.728 203.639L463.532 199.737C465.662 198.306 468.545 198.873 469.977 200.999L476.564 210.801C477.996 212.927 477.428 215.814 475.302 217.245Z" fill="#FEE4E2"/>
<path d="M517.82 114.928C531.637 114.928 542.838 102.186 542.838 86.4682C542.838 70.7502 531.637 58.0083 517.82 58.0083C504.004 58.0083 492.803 70.7502 492.803 86.4682C492.803 102.186 504.004 114.928 517.82 114.928Z" fill="#1F2937"/>
<path d="M507.558 100.302C517.1 100.302 524.835 92.5673 524.835 83.0256C524.835 73.484 517.1 65.749 507.558 65.749C498.016 65.749 490.281 73.484 490.281 83.0256C490.281 92.5673 498.016 100.302 507.558 100.302Z" fill="#1F2937"/>
<path d="M495.516 92.4807C495.516 92.4807 499.371 124.043 508.964 125.656C518.558 127.269 533.978 108.53 534.788 106.558C535.595 104.586 535.684 80.8266 523.759 79.1209C511.835 77.4191 495.516 92.4807 495.516 92.4807Z" fill="#FEE4E2"/>
<path d="M538.072 84.3725C538.072 84.3725 529.358 67.748 528.671 67.748C527.985 67.748 512.784 68.7784 511.557 69.6968C510.33 70.6153 492.443 89.5281 492.443 89.5281L495.515 92.4764C495.515 92.4764 518.353 87.1741 519.387 88.5248C519.595 88.7949 519.881 89.7867 520.22 91.2106C520.502 92.3876 521.521 93.2983 522.729 93.3138C523.261 93.3215 523.809 93.4025 524.369 93.5762C526.371 94.1936 527.934 95.8954 528.332 97.9522C528.864 100.719 527.425 103.227 525.171 104.316C524.014 104.875 523.477 106.222 523.809 107.461C524.284 109.255 524.735 110.594 525.121 111.084C526.842 113.261 530.636 111.517 535.1 107.685C539.561 103.856 538.072 84.3725 538.072 84.3725Z" fill="#1F2937"/>
<path d="M444.364 82.9874L390.242 73.5214C388.934 73.2937 386.063 68.8443 386.205 67.5245L390.674 48.0058C390.832 46.5587 392.179 45.5477 393.615 45.7985L446.398 51.421C447.706 51.6487 449.952 56.7001 449.805 58.0237L447.301 80.784C447.142 82.2272 445.796 83.2383 444.364 82.9874Z" fill="#1F2937"/>
<path d="M442.415 78.9474L388.293 69.4813C386.985 69.2536 386.078 68.0457 386.221 66.7221L388.725 43.9619C388.884 42.5148 390.23 41.5037 391.666 41.7546L445.788 51.2206C447.096 51.4483 448.003 52.6562 447.86 53.9798L445.356 76.74C445.194 78.1871 443.847 79.1982 442.415 78.9474Z" fill="#F79009"/>
<path d="M394.167 50.8423C395.862 50.8423 397.235 49.4688 397.235 47.7744C397.235 46.0801 395.862 44.7065 394.167 44.7065C392.473 44.7065 391.1 46.0801 391.1 47.7744C391.1 49.4688 392.473 50.8423 394.167 50.8423Z" fill="#1F2937"/>
<path d="M414.651 76.4081C413.423 76.1959 412.601 75.0266 412.814 73.7956L414.241 65.5914C414.454 64.3643 415.623 63.5423 416.854 63.7546C418.081 63.9668 418.903 65.1361 418.691 66.3671L417.263 74.5713C417.047 75.7984 415.878 76.6204 414.651 76.4081Z" fill="#1F2937"/>
<path d="M431.303 78.4572C430.604 78.3376 430.141 77.6739 430.261 76.9754L431.071 72.3215C431.191 71.623 431.855 71.1599 432.553 71.2796C433.252 71.3992 433.715 72.0629 433.595 72.7614L432.785 77.4153C432.665 78.1138 432.001 78.5807 431.303 78.4572Z" fill="#1F2937"/>
<path d="M397.645 72.5998C396.946 72.4802 396.483 71.8165 396.603 71.118L397.413 66.4641C397.533 65.7656 398.197 65.3025 398.895 65.4221C399.594 65.5418 400.057 66.2055 399.937 66.904L399.127 71.5579C399.003 72.2564 398.339 72.7233 397.645 72.5998Z" fill="#1F2937"/>
<path d="M487.971 154.711C486.412 164.995 486.35 175.375 487.782 185.679C487.863 186.262 488.747 186.015 488.666 185.436C487.257 175.31 487.323 165.06 488.855 154.954C488.943 154.379 488.06 154.128 487.971 154.711Z" fill="#1F2937"/>
<path d="M504.437 135.975C508.061 142.269 515.312 146.193 522.602 145.348C529.895 144.503 536.05 139.043 538.153 132.085C538.323 131.518 537.439 131.278 537.27 131.842C535.271 138.456 529.413 143.642 522.482 144.434C515.544 145.225 508.682 141.505 505.232 135.512C504.935 134.998 504.14 135.461 504.437 135.975Z" fill="#1F2937"/>
<path d="M482.348 165.855C484.339 168.244 485.782 170.93 486.689 173.905C486.863 174.468 487.747 174.229 487.573 173.662C486.62 170.54 485.084 167.719 482.996 165.207C482.618 164.755 481.97 165.407 482.348 165.855Z" fill="#1F2937"/>
<path d="M465.69 161.263C465.69 162.231 465.69 163.2 465.69 164.168C465.69 164.759 466.609 164.759 466.609 164.168C466.609 163.2 466.609 162.231 466.609 161.263C466.609 160.672 465.69 160.668 465.69 161.263Z" fill="#1F2937"/>
<path d="M467.375 160.039C467.375 160.904 467.375 161.772 467.375 162.637C467.375 163.227 468.293 163.227 468.293 162.637C468.293 161.772 468.293 160.904 468.293 160.039C468.293 159.449 467.375 159.445 467.375 160.039Z" fill="#1F2937"/>
<path d="M561.409 166.97C563.6 171.682 565.175 176.594 566.147 181.696C566.259 182.275 567.143 182.032 567.031 181.453C566.039 176.274 564.422 171.288 562.2 166.511C561.953 165.975 561.162 166.438 561.409 166.97Z" fill="#1F2937"/>
<path d="M563.99 220.645C557.912 225.098 551.167 228.402 543.92 230.462C543.352 230.625 543.595 231.508 544.163 231.346C551.483 229.266 558.314 225.936 564.453 221.436C564.924 221.089 564.465 220.294 563.99 220.645Z" fill="#1F2937"/>
<path d="M564.325 228.861C559.593 230.107 554.862 231.358 550.127 232.604C549.556 232.755 549.799 233.638 550.371 233.488C555.102 232.241 559.833 230.991 564.568 229.745C565.139 229.594 564.896 228.71 564.325 228.861Z" fill="#1F2937"/>
<path d="M559.208 216.914C561.342 215.833 563.48 214.757 565.614 213.676C566.143 213.41 565.676 212.619 565.151 212.885C563.017 213.966 560.879 215.042 558.745 216.123C558.216 216.389 558.679 217.18 559.208 216.914Z" fill="#1F2937"/>
<path d="M562.042 238.208C563.497 238.007 564.944 238.231 566.275 238.848C566.808 239.095 567.275 238.304 566.738 238.057C565.156 237.324 563.524 237.085 561.799 237.324C561.216 237.405 561.463 238.289 562.042 238.208Z" fill="#1F2937"/>
<path d="M475.415 235.993C488.771 229.591 500.749 220.653 510.694 209.674C511.087 209.238 510.443 208.586 510.045 209.026C500.151 219.951 488.246 228.83 474.952 235.202C474.419 235.456 474.886 236.247 475.415 235.993Z" fill="#1F2937"/>
<path d="M485.762 222.312C484.851 226.842 482.2 230.639 478.241 233.032C477.735 233.337 478.199 234.132 478.704 233.823C482.852 231.318 485.689 227.309 486.646 222.555C486.762 221.98 485.878 221.733 485.762 222.312Z" fill="#1F2937"/>
<path d="M551.811 261.835C552.386 278.51 550.479 295.212 546.095 311.315C543.857 319.535 540.994 327.588 537.509 335.364C535.07 340.809 530.204 347.536 533.855 353.494C536.911 358.48 544.448 360.988 545.142 367.313C545.208 367.892 546.122 367.899 546.061 367.313C545.509 362.3 541.013 359.556 537.61 356.423C535.178 354.185 533.222 351.603 533.426 348.126C533.677 343.842 536.583 339.663 538.3 335.827C544.826 321.26 549.229 305.754 551.355 289.936C552.606 280.625 553.053 271.228 552.729 261.839C552.71 261.245 551.791 261.245 551.811 261.835Z" fill="#2B43CA"/>
<path d="M545.313 366.731C545.117 368.517 546.035 370.308 547.802 370.921C548.775 371.257 549.724 371.06 550.697 370.829C551.414 370.659 552.321 370.177 553.058 370.304C553.78 370.771 554.505 371.238 555.227 371.705C555.308 372.287 555.312 372.87 555.242 373.453C555.138 375.479 555.185 377.111 557.014 378.361C559.75 380.233 564.655 378.84 566.109 382.464C566.325 383.004 567.213 382.768 566.993 382.22C566.241 380.337 564.651 379.43 562.729 378.994C561.166 378.639 559.48 378.655 558.029 377.895C555.833 376.745 556.176 374.861 556.211 372.801C556.238 371.087 555.559 369.71 553.761 369.42C552.977 369.293 552.205 369.467 551.453 369.656C549.053 370.261 545.846 370.231 546.232 366.723C546.294 366.148 545.375 366.152 545.313 366.731Z" fill="#2B43CA"/>
<path d="M567.462 384.752C569.823 389.333 570.804 394.411 572.702 399.173C574.543 403.792 577.364 406.702 580.902 410.067C588.613 417.395 588.049 428.594 591.491 437.967C591.692 438.515 592.58 438.28 592.375 437.724C589.157 428.964 589.55 418.364 583.117 411.02C581.389 409.048 579.235 407.509 577.491 405.556C575.608 403.445 574.331 400.914 573.335 398.286C571.575 393.636 570.545 388.742 568.257 384.297C567.983 383.764 567.192 384.231 567.462 384.752Z" fill="#2B43CA"/>
<path d="M572.854 447.14C576.412 448.911 580.274 447.626 583.705 446.141C587.881 444.331 591.651 441.776 594.962 438.666C595.394 438.261 594.742 437.612 594.313 438.017C591.604 440.561 588.594 442.725 585.276 444.4C581.772 446.168 577.141 448.255 573.317 446.353C572.792 446.087 572.325 446.874 572.854 447.14Z" fill="#2B43CA"/>
<path d="M516.815 437.392C520.311 435.44 523.333 432.866 525.803 429.713C526.162 429.254 525.517 428.601 525.154 429.065C522.731 432.156 519.783 434.687 516.352 436.601C515.839 436.891 516.298 437.682 516.815 437.392Z" fill="#2B43CA"/>
<path d="M523.165 431.858C524.014 427.86 523.751 423.739 522.238 419.926C521.536 418.163 520.587 416.557 519.448 415.045C517.642 412.637 515.014 409.681 517.071 406.582C517.23 406.343 517.075 405.972 516.797 405.907C513.154 405.092 511.561 401.457 510.442 398.262C509.087 394.399 507.868 390.467 506.803 386.515C504.564 378.199 503.326 369.574 505.294 361.077C505.425 360.502 504.541 360.259 504.41 360.834C502.272 370.072 503.823 379.449 506.382 388.433C507.547 392.528 508.697 396.765 510.395 400.678C511.615 403.491 513.409 406.092 516.554 406.794C516.462 406.57 516.373 406.347 516.28 406.119C513.729 409.959 517.28 413.447 519.363 416.472C522.412 420.903 523.396 426.382 522.285 431.615C522.157 432.19 523.045 432.437 523.165 431.858Z" fill="#2B43CA"/>
<path d="M503.294 333.944C516.557 338.066 521.458 354.405 512.586 365.136C512.212 365.588 512.856 366.24 513.234 365.785C517.707 360.374 519.378 352.869 517.12 346.142C515.013 339.864 509.819 335.013 503.537 333.061C502.973 332.887 502.73 333.771 503.294 333.944Z" fill="#2B43CA"/>
<path d="M456.862 326.242C468.994 333.381 471.619 349.832 462.268 360.386C461.879 360.826 462.523 361.478 462.917 361.034C472.649 350.048 469.982 332.895 457.325 325.447C456.816 325.15 456.356 325.941 456.862 326.242Z" fill="#2B43CA"/>
<path d="M500.499 103.522C500.646 105.552 500.457 107.47 500.071 109.465C499.851 110.611 499.627 111.838 500.148 112.942C501.206 115.18 503.868 114.879 505.871 114.443C506.446 114.319 506.203 113.432 505.628 113.559C504.007 113.91 501.53 114.458 500.827 112.104C500.488 110.966 500.986 109.704 501.186 108.585C501.487 106.899 501.541 105.224 501.418 103.518C501.375 102.939 500.457 102.935 500.499 103.522Z" fill="#F04438"/>
<path d="M504.951 118.54C508.108 118.093 510.817 116.186 512.333 113.385C512.615 112.864 511.824 112.401 511.542 112.922C510.126 115.538 507.648 117.24 504.708 117.657C504.125 117.738 504.372 118.621 504.951 118.54Z" fill="#111827"/>
<path d="M506.067 97.0841C508.159 95.3823 510.621 94.3751 513.307 94.1165C513.889 94.0625 513.893 93.1441 513.307 93.1981C510.362 93.4798 507.715 94.5642 505.419 96.4319C504.96 96.8062 505.616 97.4545 506.067 97.0841Z" fill="#F04438"/>
<path d="M498.307 98.7986C497.581 98.5979 496.86 98.4011 496.134 98.2004C495.563 98.0422 495.32 98.9298 495.891 99.0842C496.617 99.2848 497.338 99.4816 498.064 99.6823C498.631 99.8405 498.874 98.9568 498.307 98.7986Z" fill="#F04438"/>
<path d="M509.195 98.8161C509.013 98.0906 508.396 97.8205 507.828 97.9092C507.701 97.8436 507.558 97.805 507.392 97.8243C506.733 97.8938 506.532 98.5884 506.763 99.0978C506.763 99.1364 506.748 99.1634 506.748 99.2058C506.752 99.3254 506.802 99.4142 506.864 99.4875C506.848 99.5801 506.86 99.6766 506.929 99.7692C506.956 99.804 506.987 99.8194 507.014 99.8503C507.01 99.8541 507.003 99.858 506.999 99.8619C507.068 99.9506 507.157 100.016 507.25 100.07C507.273 100.086 507.3 100.097 507.327 100.113C507.362 100.128 507.392 100.144 507.427 100.155C508.299 100.56 509.488 99.9699 509.195 98.8161Z" fill="#111827"/>
<path d="M497.513 101.437C497.374 101.529 497.316 101.657 497.308 101.788C497.2 101.861 497.115 101.973 497.1 102.131C496.98 103.208 498.454 103.686 498.979 102.722C499.481 101.795 498.354 100.885 497.513 101.437ZM498.026 102.208C498.091 102.178 498.145 102.178 498.18 102.262C498.196 102.301 498.053 102.355 498.026 102.208Z" fill="#111827"/>
<path d="M571.529 175.857C571.301 183.506 572.266 191.073 574.407 198.421C574.573 198.988 575.457 198.745 575.291 198.178C573.173 190.907 572.219 183.425 572.443 175.857C572.463 175.267 571.548 175.267 571.529 175.857Z" fill="#F04438"/>
<path d="M585.074 205.834C585.738 206.347 586.217 207.057 586.468 207.852C586.645 208.412 587.533 208.172 587.351 207.609C587.019 206.563 586.402 205.71 585.534 205.043C585.071 204.68 584.611 205.475 585.074 205.834Z" fill="#F04438"/>
<path d="M586.815 205.073C587.274 205.61 587.733 206.142 588.193 206.679C588.579 207.126 589.223 206.478 588.841 206.03C588.382 205.494 587.923 204.961 587.463 204.425C587.077 203.973 586.433 204.626 586.815 205.073Z" fill="#F04438"/>
<path d="M593.85 116.248C594.615 117.248 595.135 118.351 595.409 119.578C595.537 120.153 596.42 119.91 596.293 119.335C596.004 118.039 595.452 116.842 594.642 115.785C594.29 115.322 593.492 115.777 593.85 116.248Z" fill="#F04438"/>
<path d="M594.767 114.871C595.072 115.557 595.377 116.244 595.686 116.935C595.925 117.471 596.716 117.008 596.477 116.472C596.172 115.785 595.867 115.098 595.558 114.407C595.319 113.871 594.528 114.338 594.767 114.871Z" fill="#F04438"/>
<path d="M578.584 145.438C578.083 146.75 577.581 148.062 577.083 149.374C576.871 149.926 577.759 150.165 577.967 149.617C578.469 148.305 578.97 146.993 579.468 145.681C579.677 145.129 578.793 144.89 578.584 145.438Z" fill="#F04438"/>
<path d="M579.36 147.305C579.206 148.069 579.055 148.833 578.901 149.597C578.785 150.172 579.669 150.419 579.785 149.841C579.939 149.076 580.09 148.312 580.244 147.548C580.36 146.973 579.476 146.726 579.36 147.305Z" fill="#F04438"/>
<path d="M515.762 123.063C519.798 119.54 523.645 115.82 527.304 111.903C527.705 111.471 527.061 110.823 526.655 111.255C522.997 115.172 519.154 118.892 515.113 122.415C514.666 122.805 515.318 123.453 515.762 123.063Z" fill="#F04438"/>
<path d="M527.086 120.725C527.834 121.087 528.305 121.74 528.432 122.562C528.521 123.144 529.405 122.897 529.316 122.318C529.158 121.288 528.486 120.389 527.549 119.934C527.02 119.675 526.553 120.466 527.086 120.725Z" fill="#F04438"/>
<path d="M528.044 119.459C528.426 119.995 528.808 120.528 529.19 121.064C529.53 121.539 530.325 121.083 529.981 120.601C529.599 120.065 529.217 119.532 528.835 118.996C528.496 118.517 527.701 118.976 528.044 119.459Z" fill="#F04438"/>
<path d="M512.012 132.861C512.158 133.552 512.309 134.239 512.456 134.929C512.579 135.504 513.463 135.261 513.339 134.686C513.193 133.996 513.042 133.309 512.895 132.618C512.772 132.043 511.888 132.286 512.012 132.861Z" fill="#F04438"/>
<path d="M513.322 132.644C513.476 133.027 513.627 133.409 513.781 133.791C513.997 134.331 514.885 134.095 514.665 133.547C514.51 133.165 514.36 132.783 514.206 132.401C513.989 131.861 513.102 132.097 513.322 132.644Z" fill="#F04438"/>
<path d="M462.586 206.212C464.589 204.862 466.595 203.511 468.598 202.161C469.084 201.833 468.625 201.038 468.135 201.369C466.132 202.72 464.126 204.071 462.123 205.421C461.637 205.749 462.092 206.544 462.586 206.212Z" fill="#F04438"/>
<path d="M467.102 210.82C468.719 209.346 470.506 208.115 472.451 207.116C472.976 206.845 472.513 206.054 471.988 206.324C469.969 207.355 468.125 208.644 466.45 210.172C466.018 210.569 466.666 211.218 467.102 210.82Z" fill="#F04438"/>
<path d="M470.755 214.702C472.349 213.386 473.939 212.07 475.532 210.758C475.988 210.384 475.336 209.735 474.884 210.11C473.29 211.426 471.7 212.741 470.107 214.053C469.651 214.428 470.304 215.072 470.755 214.702Z" fill="#F04438"/>
<path d="M473.853 216.801C475.092 215.906 476.334 215.014 477.573 214.119C478.048 213.776 477.588 212.981 477.11 213.328C475.871 214.223 474.629 215.115 473.39 216.01C472.915 216.354 473.371 217.149 473.853 216.801Z" fill="#F04438"/>
<path d="M462.421 199.112C458.732 200.736 456.301 204.186 455.915 208.184C455.857 208.771 456.775 208.767 456.833 208.184C457.192 204.495 459.511 201.388 462.884 199.903C463.42 199.667 462.954 198.876 462.421 199.112Z" fill="#F04438"/>
<path d="M455.756 192.355C457.168 192.262 458.484 192.683 459.553 193.617C459.997 194.002 460.645 193.358 460.201 192.968C458.959 191.88 457.411 191.328 455.756 191.436C455.169 191.475 455.165 192.393 455.756 192.355Z" fill="#F04438"/>
<path d="M467.724 193.053C467.801 193.817 467.878 194.581 467.955 195.345C468.013 195.928 468.932 195.932 468.874 195.345C468.796 194.581 468.719 193.817 468.642 193.053C468.58 192.471 467.662 192.463 467.724 193.053Z" fill="#F04438"/>
<path d="M469.332 193.3C469.722 193.898 469.791 194.562 469.544 195.233C469.34 195.789 470.227 196.028 470.428 195.476C470.752 194.597 470.633 193.62 470.123 192.837C469.803 192.343 469.008 192.802 469.332 193.3Z" fill="#F04438"/>
<path d="M458.799 172.296C459.03 172.982 459.258 173.669 459.49 174.36C459.675 174.916 460.562 174.677 460.373 174.117C460.142 173.43 459.914 172.743 459.682 172.052C459.497 171.497 458.614 171.736 458.799 172.296Z" fill="#F04438"/>
<path d="M460.24 171.474C460.398 171.779 460.553 172.08 460.711 172.385C460.981 172.91 461.776 172.447 461.502 171.922C461.344 171.617 461.189 171.316 461.031 171.011C460.761 170.486 459.97 170.949 460.24 171.474Z" fill="#F04438"/>
<path d="M510.85 265.278C510.086 266.501 509.322 267.724 508.558 268.948C508.246 269.449 509.037 269.912 509.349 269.411C510.113 268.188 510.877 266.964 511.641 265.741C511.954 265.239 511.163 264.78 510.85 265.278Z" fill="#2B43CA"/>
<path d="M511.765 268.489C511.001 269.712 510.237 270.935 509.473 272.158C509.161 272.66 509.952 273.123 510.264 272.621C511.028 271.398 511.792 270.175 512.556 268.952C512.873 268.45 512.078 267.987 511.765 268.489Z" fill="#2B43CA"/>
<path d="M535.548 310.451C535.702 311.674 535.853 312.897 536.007 314.121C536.08 314.699 536.999 314.707 536.925 314.121C536.771 312.897 536.621 311.674 536.466 310.451C536.393 309.872 535.478 309.864 535.548 310.451Z" fill="#2B43CA"/>
<path d="M537.453 308.263C537.773 309.483 538.093 310.702 538.414 311.921C538.564 312.493 539.448 312.249 539.297 311.678C538.977 310.459 538.657 309.239 538.336 308.02C538.19 307.449 537.302 307.692 537.453 308.263Z" fill="#2B43CA"/>
<path d="M530.042 390.698C530.042 392.686 530.042 394.673 530.042 396.66C530.042 397.251 530.96 397.251 530.96 396.66C530.96 394.673 530.96 392.686 530.96 390.698C530.96 390.108 530.042 390.108 530.042 390.698Z" fill="#2B43CA"/>
<path d="M533.274 392.411C532.656 394.627 532.656 396.861 533.274 399.076C533.432 399.643 534.316 399.404 534.157 398.833C533.582 396.768 533.582 394.719 534.157 392.658C534.316 392.087 533.432 391.844 533.274 392.411Z" fill="#2B43CA"/>
<path d="M569.588 441.347C570.055 442.108 570.518 442.868 570.985 443.628C571.293 444.13 572.085 443.67 571.776 443.165C571.309 442.405 570.846 441.645 570.379 440.884C570.07 440.383 569.279 440.842 569.588 441.347Z" fill="#2B43CA"/>
<path d="M570.986 440.421C571.75 441.799 572.514 443.173 573.278 444.551C573.564 445.068 574.359 444.605 574.069 444.087C573.305 442.71 572.541 441.336 571.777 439.958C571.492 439.441 570.7 439.904 570.986 440.421Z" fill="#2B43CA"/>
<path d="M465.402 300.024C465.707 301.247 466.012 302.471 466.321 303.694C466.463 304.265 467.347 304.022 467.204 303.451C466.9 302.227 466.595 301.004 466.286 299.781C466.143 299.21 465.259 299.449 465.402 300.024Z" fill="#2B43CA"/>
<path d="M466.898 298.851C467.727 299.789 468.148 300.942 468.14 302.197C468.136 302.787 469.055 302.787 469.059 302.197C469.07 300.699 468.542 299.322 467.55 298.202C467.156 297.759 466.508 298.411 466.898 298.851Z" fill="#2B43CA"/>
<path d="M482.924 389.418C483.375 390.795 483.831 392.173 484.282 393.55C484.467 394.11 485.351 393.871 485.166 393.307C484.714 391.93 484.259 390.552 483.807 389.174C483.622 388.615 482.739 388.854 482.924 389.418Z" fill="#2B43CA"/>
<path d="M485.581 388.989C486.04 390.517 486.5 392.045 486.955 393.573C487.125 394.137 488.008 393.898 487.839 393.33C487.379 391.802 486.92 390.274 486.465 388.746C486.295 388.179 485.411 388.418 485.581 388.989Z" fill="#2B43CA"/>
<path d="M490.697 329.638C494.198 332.382 496.32 336.268 496.66 340.713C496.706 341.3 497.62 341.303 497.578 340.713C497.219 336.044 495.043 331.888 491.35 328.99C490.887 328.627 490.231 329.271 490.697 329.638Z" fill="#2B43CA"/>
<path d="M536.923 348.053C538.586 348.03 540.245 348.007 541.909 347.984C542.21 347.98 542.43 347.694 542.352 347.405C541.912 345.745 541.473 344.09 541.033 342.431C540.882 341.859 539.995 342.103 540.149 342.674C540.589 344.333 541.029 345.989 541.469 347.648C541.615 347.455 541.762 347.262 541.912 347.069C540.249 347.092 538.59 347.115 536.927 347.139C536.332 347.142 536.332 348.061 536.923 348.053Z" fill="#2B43CA"/>
<path d="M550.575 363.535C551.948 362.158 553.322 360.78 554.696 359.402C555.113 358.986 554.464 358.333 554.048 358.754C552.674 360.132 551.3 361.509 549.926 362.887C549.51 363.308 550.158 363.956 550.575 363.535Z" fill="#2B43CA"/>
<path d="M558.26 374.144C560.957 372.477 564.006 371.986 567.085 372.731C567.66 372.87 567.904 371.986 567.329 371.848C564.018 371.041 560.695 371.558 557.797 373.349C557.295 373.661 557.754 374.456 558.26 374.144Z" fill="#2B43CA"/>
<path d="M482.015 257.807C482.47 259.335 482.925 260.867 483.385 262.396C483.554 262.959 484.438 262.72 484.268 262.152C483.813 260.624 483.358 259.092 482.898 257.564C482.732 256.997 481.845 257.24 482.015 257.807Z" fill="#2B43CA"/>
<path d="M484.665 256.001C484.97 256.92 485.275 257.834 485.583 258.753C485.769 259.308 486.656 259.069 486.467 258.509C486.162 257.591 485.857 256.676 485.549 255.758C485.364 255.202 484.48 255.442 484.665 256.001Z" fill="#2B43CA"/>
<path d="M547.613 137.923C546.756 144.241 547.328 150.515 549.361 156.558C549.55 157.114 550.434 156.875 550.245 156.315C548.269 150.442 547.659 144.31 548.497 138.17C548.574 137.588 547.69 137.341 547.613 137.923Z" fill="#1F2937"/>
<path d="M555.157 141.355C555.786 141.926 556.06 142.69 555.96 143.531C555.891 144.118 556.809 144.11 556.879 143.531C557.006 142.474 556.597 141.421 555.806 140.707C555.366 140.313 554.717 140.958 555.157 141.355Z" fill="#1F2937"/>
<path d="M557.174 141.335C557.398 141.871 557.621 142.408 557.849 142.944C558.073 143.481 558.96 143.245 558.733 142.701C558.509 142.165 558.285 141.628 558.057 141.092C557.834 140.556 556.946 140.791 557.174 141.335Z" fill="#1F2937"/>
<path d="M557.924 192.235C558.496 192.903 558.824 193.69 558.955 194.555C559.04 195.137 559.927 194.89 559.838 194.311C559.684 193.289 559.244 192.374 558.573 191.587C558.187 191.136 557.542 191.788 557.924 192.235Z" fill="#1F2937"/>
<path d="M559.308 191.537C559.829 192.081 560.088 192.76 560.072 193.513C560.061 194.103 560.979 194.103 560.991 193.513C561.01 192.525 560.639 191.602 559.956 190.888C559.547 190.464 558.899 191.112 559.308 191.537Z" fill="#1F2937"/>
<path d="M495.487 176.209C495.263 177.128 495.035 178.046 494.812 178.965C494.673 179.54 495.556 179.783 495.695 179.208C495.919 178.289 496.147 177.371 496.371 176.452C496.513 175.877 495.63 175.634 495.487 176.209Z" fill="#1F2937"/>
<path d="M497.751 177.239C497.681 178.158 497.616 179.076 497.546 179.991C497.504 180.581 498.418 180.577 498.465 179.991C498.534 179.072 498.6 178.154 498.669 177.239C498.712 176.649 497.793 176.653 497.751 177.239Z" fill="#1F2937"/>
<path d="M499.098 238.852C500.167 238.315 501.24 237.783 502.308 237.247C502.837 236.984 502.374 236.193 501.845 236.455C500.776 236.992 499.704 237.524 498.635 238.061C498.106 238.323 498.569 239.114 499.098 238.852Z" fill="#1F2937"/>
<path d="M502.168 239.697C502.813 239.041 503.588 238.624 504.488 238.439C505.066 238.319 504.819 237.435 504.244 237.555C503.199 237.767 502.265 238.288 501.52 239.048C501.107 239.469 501.755 240.117 502.168 239.697Z" fill="#1F2937"/>
<path d="M556.392 251.27C557.052 251.675 557.507 252.35 557.599 253.126C557.669 253.705 558.587 253.713 558.518 253.126C558.387 252.015 557.812 251.069 556.855 250.479C556.349 250.166 555.89 250.961 556.392 251.27Z" fill="#1F2937"/>
<path d="M557.664 249.665C558.046 250.274 558.428 250.888 558.81 251.498C559.122 251.996 559.917 251.536 559.601 251.035C559.219 250.425 558.837 249.811 558.455 249.202C558.142 248.704 557.351 249.163 557.664 249.665Z" fill="#1F2937"/>
<path d="M524.557 450.069C520.76 449.571 515.423 449.169 512.698 452.589C510.464 455.394 514.072 456.953 516.384 457.088C516.974 457.123 516.97 456.204 516.384 456.17C515.778 456.154 515.18 456.081 514.589 455.95C513.1 454.02 513.204 452.685 514.91 451.948C515.809 451.404 516.816 451.076 517.839 450.871C520.061 450.428 522.334 450.698 524.557 450.987C525.14 451.06 525.136 450.142 524.557 450.069Z" fill="#F79009"/>
<path d="M526.434 458.798C523.007 457.725 517.89 457.212 514.795 459.519C511.87 461.7 514.602 464.173 516.96 465.053C517.516 465.258 517.751 464.374 517.203 464.169C515.463 463.853 514.73 462.641 514.996 460.53C515.536 460.063 516.154 459.732 516.841 459.535C517.813 459.203 518.89 459.018 519.901 458.929C522.043 458.74 524.142 459.045 526.187 459.685C526.754 459.859 526.994 458.975 526.434 458.798Z" fill="#F79009"/>
<path d="M527.871 467.928C524.757 466.964 518.737 466.072 516.205 468.87C514.09 471.212 516.927 472.853 519.053 473.119C519.636 473.192 519.632 472.274 519.053 472.2C517.853 472.37 517.413 471.803 517.737 470.499C517.07 469.221 517.421 468.561 518.791 468.519C519.813 468.222 520.917 468.079 521.974 468.021C523.912 467.917 525.787 468.245 527.628 468.816C528.191 468.99 528.434 468.106 527.871 467.928Z" fill="#F79009"/>
<path d="M581.679 463.853C579.911 462.417 578.024 461.174 575.952 460.221C574.559 459.581 572.656 458.562 571.074 458.863C567.57 459.527 569.635 463.143 571.406 464.439C571.881 464.79 572.34 463.992 571.869 463.648C570.198 462.811 570.376 461.553 572.398 459.862C572.614 459.924 572.826 459.986 573.042 460.048C574.03 460.04 575.303 460.908 576.199 461.352C577.935 462.216 579.525 463.278 581.03 464.501C581.486 464.871 582.138 464.227 581.679 463.853Z" fill="#F79009"/>
<path d="M577.924 470.768C575.814 469.375 573.695 467.97 571.395 466.905C570.04 466.28 568.408 465.558 566.911 466.118C563.781 467.295 565.533 470.776 566.942 472.547C567.308 473.01 567.953 472.358 567.59 471.899C566.548 470.591 564.279 467.137 568.211 466.836C569.485 466.739 570.967 467.685 572.063 468.256C573.938 469.228 575.702 470.394 577.461 471.559C577.955 471.887 578.414 471.092 577.924 470.768Z" fill="#F79009"/>
<path d="M574.672 479.088C573.291 477.641 571.682 476.583 569.872 475.738C568.355 475.028 566.457 473.963 564.739 474.121C561.571 474.415 562.675 477.602 564.16 479.142C564.57 479.566 565.218 478.918 564.809 478.493C563.748 477.656 563.809 476.495 564.994 475.013C565.631 475.071 566.24 475.221 566.823 475.468C567.699 475.754 568.583 476.143 569.413 476.529C571.141 477.34 572.7 478.347 574.028 479.732C574.433 480.164 575.081 479.516 574.672 479.088Z" fill="#F79009"/>
<path d="M315.752 82.957H256.085C252.986 82.957 250.474 85.4692 250.474 88.568V116.036C250.474 119.135 252.986 121.647 256.085 121.647H275.924V134.883L289.16 121.647H315.752C318.851 121.647 321.363 119.135 321.363 116.036V88.568C321.363 85.4692 318.851 82.957 315.752 82.957Z" fill="#7989E2"/>
<path d="M285.92 95.1439C285.92 95.1439 288.027 92.2188 292.187 92.2188C295.895 92.2188 298.454 95.221 298.454 98.7211C298.454 102.769 294.969 107.562 285.92 111.726C276.87 107.562 273.386 102.773 273.386 98.7211C273.386 95.2249 275.944 92.2188 279.653 92.2188C283.813 92.2188 285.92 95.1439 285.92 95.1439Z" fill="#BCC3F0"/>
<path d="M772.976 251.825H713.308C710.209 251.825 707.697 254.337 707.697 257.436V284.904C707.697 288.003 710.209 290.515 713.308 290.515H733.147V303.752L746.383 290.515H772.976C776.074 290.515 778.587 288.003 778.587 284.904V257.436C778.587 254.337 776.074 251.825 772.976 251.825Z" fill="#7989E2"/>
<path d="M743.141 264.012C743.141 264.012 745.248 261.087 749.408 261.087C753.117 261.087 755.675 264.089 755.675 267.589C755.675 271.637 752.191 276.43 743.141 280.594C734.092 276.43 730.607 271.641 730.607 267.589C730.607 264.093 733.166 261.087 736.874 261.087C741.038 261.087 743.141 264.012 743.141 264.012Z" fill="#BCC3F0"/>
<path d="M656.324 103.382H628.077C626.61 103.382 625.418 104.57 625.418 106.041V119.042C625.418 120.508 626.606 121.7 628.077 121.7H637.47V127.967L643.737 121.7H656.324C657.791 121.7 658.983 120.512 658.983 119.042V106.041C658.979 104.57 657.791 103.382 656.324 103.382Z" fill="#F79009"/>
<path d="M648.937 112.443L640.123 107.353C639.841 107.191 639.486 107.395 639.486 107.719V117.899C639.486 118.227 639.841 118.432 640.123 118.266L648.937 113.176C649.223 113.014 649.223 112.605 648.937 112.443Z" fill="#192776"/>
<path d="M187.891 237.94H139.341C136.818 237.94 134.772 239.986 134.772 242.509V264.861C134.772 267.384 136.818 269.43 139.341 269.43H155.484V280.2L166.254 269.43H187.895C190.419 269.43 192.464 267.384 192.464 264.861V242.509C192.46 239.986 190.415 237.94 187.891 237.94Z" fill="#F79009"/>
<path d="M175.199 253.519L160.045 244.771C159.559 244.489 158.949 244.84 158.949 245.404V262.9C158.949 263.464 159.559 263.815 160.045 263.533L175.199 254.785C175.686 254.503 175.686 253.801 175.199 253.519Z" fill="#192776"/>
<g opacity="0.35">
<path d="M347.702 425.83C337.515 425.83 329.226 417.541 329.226 407.353V338.336C329.226 328.148 337.515 319.859 347.702 319.859H464.22C474.408 319.859 482.697 328.148 482.697 338.336V407.353C482.697 417.541 474.408 425.83 464.22 425.83H347.702Z" fill="#F79009"/>
</g>
<g opacity="0.35">
<path d="M464.219 418.591H347.701C341.496 418.591 336.468 413.562 336.468 407.357V338.336C336.468 332.13 341.496 327.102 347.701 327.102H464.219C470.424 327.102 475.453 332.13 475.453 338.336V407.353C475.453 413.558 470.421 418.591 464.219 418.591Z" fill="#F79009"/>
</g>
<g opacity="0.22">
<path d="M430.431 364.183H359.252C356.362 364.183 354.02 361.841 354.02 358.95V344.437C354.02 341.546 356.362 339.204 359.252 339.204H430.431C433.321 339.204 435.664 341.546 435.664 344.437V358.95C435.664 361.841 433.321 364.183 430.431 364.183Z" fill="#192776"/>
</g>
<g opacity="0.22">
<path d="M454.665 402.943H388.638C385.956 402.943 383.783 400.77 383.783 398.088V384.624C383.783 381.942 385.956 379.77 388.638 379.77H454.665C457.347 379.77 459.519 381.942 459.519 384.624V398.088C459.516 400.77 457.343 402.943 454.665 402.943Z" fill="#192776"/>
</g>
<g opacity="0.48">
<path d="M626.89 537.231C628.094 528.969 631.984 521.367 634.307 513.348C637.514 502.273 637.696 490.576 637.85 479.046C637.97 470.224 637.954 460.878 633.397 453.326C631.212 449.706 628.025 446.58 626.91 442.505C625.795 438.426 628.241 432.942 632.463 433.186C635.589 433.367 637.63 436.435 639.158 439.163C644.121 448.008 649.199 457.235 649.863 467.357C650.326 474.43 648.586 481.562 649.558 488.585C650.731 497.063 655.775 505.603 652.869 513.649C650.114 521.282 640.872 525.766 639.806 533.812C639.131 538.914 642.064 543.869 641.994 549.013C641.898 556.04 636.611 562.585 631.02 555.681C626.944 550.653 625.984 543.467 626.89 537.231Z" fill="white"/>
</g>
<path d="M635.824 559.073C634.404 559.073 632.613 558.375 630.66 555.971C626.964 551.409 625.385 544.378 626.439 537.17C627.203 531.918 629.071 526.866 630.873 521.981C631.926 519.129 633.014 516.177 633.867 513.225C637.082 502.13 637.24 490.395 637.394 479.046C637.502 471.112 637.634 461.24 633.007 453.569C632.297 452.392 631.459 451.242 630.649 450.127C628.974 447.823 627.241 445.442 626.47 442.629C625.756 440.02 626.4 436.883 628.071 434.826C629.244 433.379 630.822 432.63 632.49 432.734C635.758 432.923 637.896 435.98 639.559 438.943C644.283 447.367 649.639 456.911 650.322 467.33C650.53 470.537 650.291 473.79 650.059 476.935C649.778 480.751 649.485 484.699 650.013 488.523C650.395 491.294 651.213 494.127 652.004 496.863C653.625 502.474 655.3 508.277 653.301 513.804C652.028 517.327 649.411 520.194 646.88 522.965C643.769 526.372 640.829 529.591 640.262 533.87C639.907 536.56 640.578 539.176 641.292 541.951C641.878 544.243 642.488 546.613 642.457 549.017C642.396 553.682 640.215 557.807 637.275 558.826C636.85 558.973 636.364 559.073 635.824 559.073ZM627.346 537.297C626.331 544.259 627.836 551.023 631.374 555.388C633.238 557.692 635.175 558.575 636.97 557.958C639.513 557.074 641.477 553.227 641.535 549.005C641.566 546.721 640.972 544.413 640.4 542.179C639.698 539.443 638.973 536.614 639.351 533.751C639.957 529.185 643.129 525.708 646.201 522.347C648.67 519.642 651.229 516.844 652.437 513.495C654.331 508.247 652.772 502.84 651.121 497.117C650.322 494.347 649.496 491.483 649.102 488.647C648.562 484.73 648.855 480.732 649.141 476.865C649.373 473.751 649.608 470.529 649.403 467.388C648.736 457.177 643.434 447.726 638.757 439.391C637.217 436.643 635.256 433.811 632.432 433.645C630.676 433.541 629.472 434.544 628.777 435.401C627.307 437.214 626.72 440.086 627.349 442.385C628.075 445.037 629.68 447.244 631.382 449.582C632.204 450.709 633.053 451.879 633.782 453.09C638.548 460.986 638.413 471.004 638.301 479.053C638.147 490.464 637.985 502.265 634.739 513.476C633.875 516.458 632.779 519.426 631.722 522.293C629.947 527.136 628.098 532.141 627.346 537.297Z" fill="#F79009"/>
<g opacity="0.48">
<path d="M655.088 452.334C655.987 457.351 658.854 461.854 659.718 466.879C661.038 474.519 657.6 482.083 654.405 489.149C645.483 508.887 637.749 529.371 634.473 550.78C634.114 553.131 633.902 555.82 635.484 557.592C638.243 560.679 643.738 557.866 645.124 553.964C646.509 550.063 645.568 545.745 646.042 541.627C646.81 534.951 651.182 529.352 654.52 523.521C658.31 516.903 660.872 509.667 663.419 502.482C666.009 495.169 668.61 487.806 669.856 480.15C671.546 469.781 670.724 458.771 667.255 448.83C663.438 437.89 653.062 441.004 655.088 452.334Z" fill="white"/>
</g>
<path d="M638.501 559.363C637.173 559.363 636.008 558.857 635.143 557.892C633.476 556.025 633.619 553.335 634.02 550.707C637.629 527.148 646.585 505.333 653.987 488.956C657.236 481.77 660.555 474.427 659.266 466.952C658.838 464.467 657.884 462.051 656.966 459.712C656.044 457.37 655.09 454.946 654.635 452.411C653.516 446.163 656.105 442.505 658.988 441.749C661.851 441 665.652 442.849 667.69 448.676C671.101 458.447 672.031 469.649 670.31 480.219C669.052 487.941 666.409 495.408 663.854 502.628C661.342 509.728 658.745 517.068 654.921 523.744C654.195 525.01 653.412 526.287 652.652 527.518C649.919 531.956 647.091 536.544 646.504 541.673C646.331 543.201 646.354 544.795 646.377 546.335C646.416 548.924 646.454 551.602 645.567 554.107C644.687 556.58 642.186 558.737 639.616 559.243C639.23 559.328 638.86 559.363 638.501 559.363ZM660.235 442.509C659.883 442.509 659.544 442.551 659.22 442.636C656.734 443.289 654.523 446.576 655.538 452.249C655.974 454.692 656.912 457.073 657.819 459.377C658.757 461.758 659.725 464.22 660.169 466.794C661.508 474.542 658.127 482.017 654.859 489.249C643.865 513.576 637.725 532.547 634.927 550.842C634.557 553.25 634.414 555.693 635.827 557.279C636.942 558.529 638.404 558.548 639.431 558.348C641.704 557.9 643.919 555.99 644.694 553.802C645.528 551.452 645.493 548.974 645.455 546.35C645.431 544.78 645.408 543.155 645.59 541.569C646.203 536.236 649.082 531.559 651.868 527.036C652.625 525.809 653.404 524.539 654.122 523.285C657.904 516.682 660.485 509.381 662.986 502.319C665.529 495.134 668.157 487.709 669.403 480.068C671.101 469.649 670.183 458.605 666.822 448.977C665.224 444.404 662.527 442.509 660.235 442.509Z" fill="#F79009"/>
<g opacity="0.48">
<path d="M638.83 531.944C635.836 525.079 629.071 519.904 627.925 512.503C627.265 508.262 628.604 503.998 629.218 499.749C630.194 493.015 629.33 486.022 626.744 479.732C625.748 477.309 624.444 474.916 622.387 473.296C620.33 471.671 617.378 470.969 615.028 472.13C611.49 473.874 610.888 478.825 612.146 482.561C613.404 486.296 615.97 489.488 617.228 493.227C619.107 498.807 617.884 504.877 617.29 510.735C616.695 516.593 617.004 523.165 621.102 527.394C622.947 529.297 625.459 530.597 626.783 532.894C630.53 539.4 622.252 548.214 626.007 554.72C627.477 557.267 630.754 558.818 633.632 558.976C638.248 559.231 637.966 557.768 639.027 553.327C640.71 546.334 641.802 538.759 638.83 531.944Z" fill="white"/>
</g>
<path d="M634.492 559.455C634.218 559.455 633.925 559.447 633.612 559.428C630.833 559.274 627.279 557.827 625.612 554.944C623.636 551.521 624.813 547.531 625.956 543.672C627.09 539.832 628.163 536.205 626.388 533.122C625.597 531.748 624.354 530.748 623.038 529.687C622.27 529.07 621.479 528.433 620.781 527.711C617.331 524.149 616.042 518.581 616.841 510.685C616.941 509.713 617.057 508.733 617.173 507.749C617.744 502.921 618.334 497.928 616.798 493.37C616.181 491.541 615.22 489.797 614.29 488.11C613.341 486.389 612.361 484.61 611.716 482.704C610.392 478.776 611.033 473.585 614.83 471.714C617.15 470.571 620.302 471.058 622.676 472.933C625.03 474.789 626.369 477.602 627.171 479.555C629.803 485.957 630.667 492.961 629.676 499.811C629.51 500.945 629.294 502.095 629.081 503.207C628.507 506.244 627.908 509.385 628.379 512.426C629.039 516.69 631.586 520.155 634.283 523.825C636.116 526.318 638.011 528.9 639.254 531.755C642.337 538.825 641.098 546.678 639.481 553.424C639.358 553.933 639.258 554.4 639.161 554.832C638.474 557.931 638.135 559.455 634.492 559.455ZM617.566 472.011C616.771 472.011 615.976 472.169 615.228 472.536C612.017 474.118 611.361 478.799 612.577 482.411C613.194 484.24 614.155 485.98 615.085 487.667C616.034 489.388 617.018 491.167 617.659 493.077C619.26 497.827 618.658 502.925 618.072 507.857C617.956 508.833 617.84 509.809 617.744 510.778C616.972 518.388 618.18 523.717 621.429 527.071C622.089 527.75 622.861 528.371 623.606 528.969C624.929 530.034 626.299 531.134 627.175 532.658C629.147 536.081 627.97 540.072 626.828 543.927C625.693 547.77 624.62 551.398 626.399 554.481C627.673 556.688 630.656 558.344 633.654 558.51C637.355 558.718 637.525 557.931 638.254 554.639C638.351 554.203 638.455 553.728 638.578 553.215C640.161 546.616 641.376 538.949 638.401 532.126C637.197 529.367 635.333 526.828 633.531 524.373C630.887 520.777 628.155 517.057 627.461 512.569C626.967 509.37 627.576 506.151 628.167 503.037C628.375 501.933 628.591 500.795 628.753 499.68C629.722 492.992 628.877 486.154 626.307 479.902C625.543 478.046 624.273 475.376 622.089 473.651C620.916 472.717 619.245 472.011 617.566 472.011Z" fill="#F79009"/>
<path d="M265.427 507.042C263.71 499.71 262.757 491.896 265.115 484.745C267.472 477.595 273.909 471.347 281.438 471.293C288.562 471.239 294.694 476.526 298.595 482.488C309.566 499.259 307.756 521.02 305.534 540.936C304.97 545.991 304.133 554.226 299.834 557.734C293.351 563.021 288.296 553.377 284.556 548.314C275.484 536.035 268.908 521.907 265.427 507.042Z" fill="#7989E2"/>
<path d="M305.533 540.936C307.296 525.106 308.798 508.119 303.835 493.393C302.453 496.168 301.304 499.066 300.35 501.975C295.098 518.044 294.546 535.622 298.787 551.988C299.343 554.129 300.107 555.596 301.022 556.53C304.29 552.59 305.027 545.481 305.533 540.936Z" fill="#4E63D9"/>
<path d="M346.203 505.314C348.703 498.599 350.587 490.943 347.584 484.441C343.224 474.986 329.798 472.586 320.568 477.402C311.337 482.222 305.826 492.078 302.593 501.976C297.34 518.045 296.789 535.622 301.03 551.988C305.182 568.022 321 546.636 325.615 541.021C334.371 530.355 341.383 518.249 346.203 505.314Z" fill="#7989E2"/>
<path d="M304.507 555.573C303.064 527.047 315.783 497.958 337.706 479.651L338.293 480.354C316.586 498.479 303.994 527.283 305.422 555.527L304.507 555.573Z" fill="#374151"/>
<path d="M294.667 522.432C289.535 507.108 283.499 491.9 276.727 477.228L277.56 476.842C284.344 491.544 290.395 506.784 295.539 522.138L294.667 522.432Z" fill="#374151"/>
<path d="M176.67 525.639C175.563 520.92 174.949 515.884 176.47 511.28C177.99 506.676 182.131 502.651 186.981 502.616C191.57 502.582 195.518 505.985 198.03 509.825C205.095 520.626 203.926 534.638 202.498 547.462C202.136 550.719 201.595 556.021 198.829 558.278C194.653 561.682 191.4 555.473 188.992 552.212C183.146 544.309 178.912 535.213 176.67 525.639Z" fill="#F79009"/>
<path d="M202.495 547.465C203.63 537.274 204.598 526.334 201.403 516.848C200.516 518.635 199.771 520.503 199.161 522.374C195.777 532.72 195.426 544.038 198.154 554.577C198.509 555.955 199.003 556.9 199.593 557.502C201.696 554.967 202.171 550.39 202.495 547.465Z" fill="#374151"/>
<path d="M228.686 524.528C230.295 520.206 231.507 515.274 229.574 511.087C226.764 505.001 218.12 503.45 212.177 506.557C206.235 509.663 202.684 516.007 200.6 522.378C197.216 532.724 196.865 544.043 199.593 554.581C202.268 564.908 212.451 551.135 215.423 547.52C221.065 540.651 225.58 532.855 228.686 524.528Z" fill="#F79009"/>
<path d="M201.834 556.889C200.904 538.521 209.097 519.789 223.213 508L223.591 508.451C209.614 520.125 201.502 538.671 202.425 556.858L201.834 556.889Z" fill="#374151"/>
<path d="M195.495 535.549C192.188 525.681 188.302 515.887 183.941 506.44L184.478 506.193C188.846 515.659 192.744 525.473 196.055 535.36L195.495 535.549Z" fill="#374151"/>
<path d="M404.596 559.729C404.426 559.729 404.26 559.717 404.09 559.694C401.574 559.335 399.514 556.344 397.854 553.936C397.499 553.419 397.16 552.929 396.836 552.489C390.962 544.54 386.675 535.294 384.441 525.747C383.472 521.614 382.577 516.219 384.251 511.14C385.984 505.888 390.484 502.199 395.196 502.161C395.223 502.161 395.246 502.161 395.269 502.161C401.142 502.161 405.167 507.343 406.63 509.578C413.549 520.155 412.727 533.561 411.172 547.519L411.149 547.708C410.766 551.131 410.192 556.306 407.332 558.637C406.444 559.362 405.522 559.729 404.596 559.729ZM395.269 503.075C395.246 503.075 395.223 503.075 395.199 503.075C390.38 503.11 386.478 507.301 385.12 511.422C383.514 516.281 384.39 521.513 385.332 525.531C387.539 534.958 391.773 544.088 397.573 551.938C397.901 552.385 398.248 552.887 398.611 553.412C400.166 555.669 402.103 558.479 404.222 558.78C405.071 558.895 405.897 558.617 406.753 557.919C409.323 555.824 409.894 550.676 410.238 547.6L410.257 547.411C411.793 533.627 412.615 520.398 405.862 510.075C404.484 507.965 400.695 503.075 395.269 503.075Z" fill="#F79009"/>
<path d="M411.222 558.807C410.987 558.807 410.755 558.784 410.528 558.734C409.042 558.413 407.977 557.055 407.367 554.693C404.631 544.131 404.99 532.601 408.382 522.232C410.979 514.29 414.95 508.876 420.183 506.144C423.59 504.365 428.005 504.044 431.702 505.302C434.708 506.329 437.02 508.312 438.208 510.89C440.3 515.421 438.837 520.642 437.332 524.686C434.214 533.056 429.726 540.836 423.996 547.805C423.776 548.071 423.521 548.392 423.232 548.75C420.364 552.328 415.162 558.807 411.222 558.807ZM426.971 505.457C424.744 505.457 422.51 505.966 420.611 506.958C415.598 509.574 411.778 514.811 409.258 522.517C405.92 532.724 405.565 544.07 408.259 554.466C408.776 556.465 409.605 557.599 410.725 557.838C414.174 558.575 420.021 551.294 422.521 548.179C422.815 547.817 423.073 547.492 423.293 547.222C428.958 540.33 433.396 532.639 436.475 524.366C437.919 520.491 439.327 515.502 437.379 511.276C436.294 508.93 434.176 507.116 431.409 506.174C430 505.692 428.487 505.457 426.971 505.457Z" fill="#F79009"/>
<path d="M410.055 556.889C409.125 538.52 417.318 519.789 431.434 508L431.812 508.451C417.835 520.124 409.723 538.671 410.645 556.858L410.055 556.889Z" fill="#374151"/>
<path d="M403.717 535.549C400.414 525.685 396.528 515.891 392.163 506.44L392.699 506.193C397.072 515.663 400.965 525.477 404.276 535.36L403.717 535.549Z" fill="#374151"/>
<path d="M626.009 525.639C624.902 520.92 624.288 515.884 625.808 511.28C627.329 506.676 631.47 502.651 636.32 502.616C640.909 502.582 644.856 505.985 647.369 509.825C654.434 520.626 653.265 534.638 651.837 547.462C651.475 550.719 650.934 556.021 648.167 558.278C643.992 561.682 640.739 555.473 638.331 552.212C632.488 544.309 628.251 535.213 626.009 525.639Z" fill="#F79009"/>
<path d="M651.838 547.465C652.972 537.274 653.941 526.334 650.746 516.848C649.858 518.635 649.114 520.503 648.504 522.374C645.119 532.72 644.768 544.038 647.497 554.577C647.852 555.955 648.346 556.9 648.936 557.502C651.035 554.967 651.51 550.39 651.838 547.465Z" fill="#374151"/>
<path d="M678.023 524.528C679.632 520.206 680.844 515.274 678.911 511.087C676.101 505.001 667.457 503.45 661.514 506.557C655.571 509.663 652.021 516.007 649.937 522.378C646.553 532.724 646.202 544.043 648.93 554.581C651.604 564.908 661.788 551.135 664.76 547.52C670.405 540.651 674.92 532.855 678.023 524.528Z" fill="#F79009"/>
<path d="M651.178 556.889C650.248 538.521 658.441 519.789 672.557 508L672.935 508.451C658.958 520.125 650.846 538.671 651.768 556.858L651.178 556.889Z" fill="#374151"/>
<path d="M644.837 535.549C641.53 525.681 637.644 515.887 633.283 506.44L633.82 506.193C638.188 515.659 642.086 525.473 645.397 535.36L644.837 535.549Z" fill="#374151"/>
</svg>
